%TF.GenerationSoftware,KiCad,Pcbnew,7.0.5*%
%TF.CreationDate,2024-06-27T22:40:16-04:00*%
%TF.ProjectId,ScrewSwitch,53637265-7753-4776-9974-63682e6b6963,rev?*%
%TF.SameCoordinates,Original*%
%TF.FileFunction,Copper,L1,Top*%
%TF.FilePolarity,Positive*%
%FSLAX46Y46*%
G04 Gerber Fmt 4.6, Leading zero omitted, Abs format (unit mm)*
G04 Created by KiCad (PCBNEW 7.0.5) date 2024-06-27 22:40:16*
%MOMM*%
%LPD*%
G01*
G04 APERTURE LIST*
G04 Aperture macros list*
%AMRoundRect*
0 Rectangle with rounded corners*
0 $1 Rounding radius*
0 $2 $3 $4 $5 $6 $7 $8 $9 X,Y pos of 4 corners*
0 Add a 4 corners polygon primitive as box body*
4,1,4,$2,$3,$4,$5,$6,$7,$8,$9,$2,$3,0*
0 Add four circle primitives for the rounded corners*
1,1,$1+$1,$2,$3*
1,1,$1+$1,$4,$5*
1,1,$1+$1,$6,$7*
1,1,$1+$1,$8,$9*
0 Add four rect primitives between the rounded corners*
20,1,$1+$1,$2,$3,$4,$5,0*
20,1,$1+$1,$4,$5,$6,$7,0*
20,1,$1+$1,$6,$7,$8,$9,0*
20,1,$1+$1,$8,$9,$2,$3,0*%
G04 Aperture macros list end*
%TA.AperFunction,SMDPad,CuDef*%
%ADD10RoundRect,0.135000X-0.135000X-0.185000X0.135000X-0.185000X0.135000X0.185000X-0.135000X0.185000X0*%
%TD*%
%TA.AperFunction,SMDPad,CuDef*%
%ADD11R,1.000000X3.150000*%
%TD*%
%TA.AperFunction,SMDPad,CuDef*%
%ADD12RoundRect,0.190000X0.285000X0.685000X-0.285000X0.685000X-0.285000X-0.685000X0.285000X-0.685000X0*%
%TD*%
%TA.AperFunction,ComponentPad*%
%ADD13R,2.100000X2.100000*%
%TD*%
%TA.AperFunction,ComponentPad*%
%ADD14C,2.100000*%
%TD*%
%TA.AperFunction,ComponentPad*%
%ADD15C,5.700000*%
%TD*%
%TA.AperFunction,ConnectorPad*%
%ADD16C,9.200000*%
%TD*%
%TA.AperFunction,Conductor*%
%ADD17C,0.250000*%
%TD*%
G04 APERTURE END LIST*
D10*
%TO.P,R3,1*%
%TO.N,Net-(J4-Pin_6)*%
X143297503Y-94171041D03*
%TO.P,R3,2*%
%TO.N,Net-(J4-Pin_8)*%
X144317503Y-94171041D03*
%TD*%
%TO.P,R2,1*%
%TO.N,Net-(J4-Pin_4)*%
X140437503Y-94171041D03*
%TO.P,R2,2*%
%TO.N,Net-(J4-Pin_6)*%
X141457503Y-94171041D03*
%TD*%
%TO.P,R1,1*%
%TO.N,Net-(BT1-+)*%
X135357503Y-94171041D03*
%TO.P,R1,2*%
%TO.N,Net-(J4-Pin_4)*%
X136377503Y-94171041D03*
%TD*%
D11*
%TO.P,J4,1,Pin_1*%
%TO.N,Net-(J4-Pin_1)*%
X136187503Y-104110000D03*
%TO.P,J4,2,Pin_2*%
%TO.N,Net-(BT1-+)*%
X136187503Y-99060000D03*
%TO.P,J4,3,Pin_3*%
%TO.N,Net-(J4-Pin_1)*%
X138727503Y-104110000D03*
%TO.P,J4,4,Pin_4*%
%TO.N,Net-(J4-Pin_4)*%
X138727503Y-99060000D03*
%TO.P,J4,5,Pin_5*%
%TO.N,Net-(J4-Pin_1)*%
X141267503Y-104110000D03*
%TO.P,J4,6,Pin_6*%
%TO.N,Net-(J4-Pin_6)*%
X141267503Y-99060000D03*
%TO.P,J4,7,Pin_7*%
%TO.N,Net-(J4-Pin_1)*%
X143807503Y-104110000D03*
%TO.P,J4,8,Pin_8*%
%TO.N,Net-(J4-Pin_8)*%
X143807503Y-99060000D03*
%TD*%
D12*
%TO.P,LED1,1,K*%
%TO.N,Net-(J1-Pin_2)*%
X141250000Y-109220000D03*
%TO.P,LED1,2,A*%
%TO.N,Net-(J4-Pin_1)*%
X138150000Y-109220000D03*
%TD*%
D13*
%TO.P,J1,1,Pin_1*%
%TO.N,Net-(BT1-+)*%
X143807503Y-88055716D03*
D14*
%TO.P,J1,2,Pin_2*%
%TO.N,Net-(J1-Pin_2)*%
X143807503Y-90595716D03*
%TD*%
D13*
%TO.P,J2,1,Pin_1*%
%TO.N,Net-(BT1--)*%
X136187503Y-90595716D03*
D14*
%TO.P,J2,2,Pin_2*%
%TO.N,Net-(BT1-+)*%
X136187503Y-88055716D03*
%TD*%
D15*
%TO.P,SW1,1*%
%TO.N,Net-(BT1--)*%
X139700000Y-116840000D03*
D16*
X139700000Y-116840000D03*
%TD*%
D17*
%TO.N,Net-(J4-Pin_8)*%
X144317503Y-94171041D02*
X144317503Y-98550000D01*
X144317503Y-98550000D02*
X143807503Y-99060000D01*
%TO.N,Net-(J4-Pin_6)*%
X141457503Y-94171041D02*
X143297503Y-94171041D01*
X141457503Y-94171041D02*
X141457503Y-98870000D01*
X141457503Y-98870000D02*
X141267503Y-99060000D01*
%TO.N,Net-(J4-Pin_4)*%
X138727503Y-95881041D02*
X138727503Y-99060000D01*
X140437503Y-94171041D02*
X138727503Y-95881041D01*
X136377503Y-94171041D02*
X140437503Y-94171041D01*
%TO.N,Net-(BT1-+)*%
X135357503Y-98230000D02*
X136187503Y-99060000D01*
X135357503Y-94171041D02*
X135357503Y-98230000D01*
X132271041Y-94171041D02*
X135357503Y-94171041D01*
X132271041Y-94171041D02*
X132080000Y-93980000D01*
X132080000Y-93980000D02*
X132080000Y-88900000D01*
X143807503Y-88055716D02*
X136187503Y-88055716D01*
X132080000Y-88900000D02*
X132924284Y-88055716D01*
X132924284Y-88055716D02*
X136187503Y-88055716D01*
X136187503Y-88055716D02*
X136397503Y-88055716D01*
%TO.N,Net-(BT1--)*%
X147320000Y-106680000D02*
X147320000Y-91440000D01*
X144651787Y-91440000D02*
X143807503Y-90595716D01*
X141250000Y-109220000D02*
X144780000Y-109220000D01*
X144780000Y-111760000D02*
X144780000Y-109220000D01*
X144780000Y-109220000D02*
X147320000Y-106680000D01*
X139700000Y-116840000D02*
X144780000Y-111760000D01*
X147320000Y-91440000D02*
X144651787Y-91440000D01*
%TO.N,Net-(J4-Pin_8)*%
X144127503Y-98931041D02*
X143807503Y-99251041D01*
%TO.N,Net-(J4-Pin_1)*%
X141267503Y-104316041D02*
X143807503Y-104316041D01*
X136187503Y-104316041D02*
X138727503Y-104316041D01*
X138727503Y-104316041D02*
X141267503Y-104316041D01*
X136187503Y-107257503D02*
X136187503Y-104316041D01*
X138150000Y-109220000D02*
X136187503Y-107257503D01*
%TD*%
M02*
