%TF.GenerationSoftware,KiCad,Pcbnew,7.0.5*%
%TF.CreationDate,2024-06-27T07:22:42-04:00*%
%TF.ProjectId,ScrewSwitch,53637265-7753-4776-9974-63682e6b6963,rev?*%
%TF.SameCoordinates,Original*%
%TF.FileFunction,Drillmap*%
%TF.FilePolarity,Positive*%
%FSLAX45Y45*%
G04 Gerber Fmt 4.5, Leading zero omitted, Abs format (unit mm)*
G04 Created by KiCad (PCBNEW 7.0.5) date 2024-06-27 07:22:42*
%MOMM*%
%LPD*%
G01*
G04 APERTURE LIST*
%ADD10C,0.100000*%
%ADD11C,0.200000*%
%ADD12C,0.180000*%
%ADD13C,0.300000*%
G04 APERTURE END LIST*
D10*
X12985596Y-8124507D02*
X15017596Y-8124507D01*
X15017596Y-12696507D01*
X12985596Y-12696507D01*
X12985596Y-8124507D01*
D11*
D12*
X13880000Y-10832000D02*
X14060000Y-11012000D01*
X14060000Y-10832000D02*
X13880000Y-11012000D01*
D11*
X14060000Y-10952000D02*
X14060000Y-10892000D01*
X14060000Y-10892000D02*
G75*
G03*
X13880000Y-10892000I-90000J0D01*
G01*
X13880000Y-10892000D02*
X13880000Y-10952000D01*
X13880000Y-10952000D02*
G75*
G03*
X14060000Y-10952000I90000J0D01*
G01*
D13*
X13421192Y-8383230D02*
G75*
G03*
X13421192Y-8383230I-150000J0D01*
G01*
X13421192Y-12447230D02*
G75*
G03*
X13421192Y-12447230I-150000J0D01*
G01*
X14882000Y-8382000D02*
G75*
G03*
X14882000Y-8382000I-150000J0D01*
G01*
X14882000Y-12446000D02*
G75*
G03*
X14882000Y-12446000I-150000J0D01*
G01*
D11*
X13241373Y-13012991D02*
X13241373Y-12812991D01*
X13241373Y-12812991D02*
X13288992Y-12812991D01*
X13288992Y-12812991D02*
X13317563Y-12822515D01*
X13317563Y-12822515D02*
X13336611Y-12841563D01*
X13336611Y-12841563D02*
X13346135Y-12860610D01*
X13346135Y-12860610D02*
X13355659Y-12898705D01*
X13355659Y-12898705D02*
X13355659Y-12927277D01*
X13355659Y-12927277D02*
X13346135Y-12965372D01*
X13346135Y-12965372D02*
X13336611Y-12984420D01*
X13336611Y-12984420D02*
X13317563Y-13003467D01*
X13317563Y-13003467D02*
X13288992Y-13012991D01*
X13288992Y-13012991D02*
X13241373Y-13012991D01*
X13441373Y-13012991D02*
X13441373Y-12879658D01*
X13441373Y-12917753D02*
X13450897Y-12898705D01*
X13450897Y-12898705D02*
X13460420Y-12889182D01*
X13460420Y-12889182D02*
X13479468Y-12879658D01*
X13479468Y-12879658D02*
X13498516Y-12879658D01*
X13565182Y-13012991D02*
X13565182Y-12879658D01*
X13565182Y-12812991D02*
X13555659Y-12822515D01*
X13555659Y-12822515D02*
X13565182Y-12832039D01*
X13565182Y-12832039D02*
X13574706Y-12822515D01*
X13574706Y-12822515D02*
X13565182Y-12812991D01*
X13565182Y-12812991D02*
X13565182Y-12832039D01*
X13688992Y-13012991D02*
X13669944Y-13003467D01*
X13669944Y-13003467D02*
X13660420Y-12984420D01*
X13660420Y-12984420D02*
X13660420Y-12812991D01*
X13793754Y-13012991D02*
X13774706Y-13003467D01*
X13774706Y-13003467D02*
X13765182Y-12984420D01*
X13765182Y-12984420D02*
X13765182Y-12812991D01*
X14022325Y-13012991D02*
X14022325Y-12812991D01*
X14022325Y-12812991D02*
X14088992Y-12955848D01*
X14088992Y-12955848D02*
X14155659Y-12812991D01*
X14155659Y-12812991D02*
X14155659Y-13012991D01*
X14336611Y-13012991D02*
X14336611Y-12908229D01*
X14336611Y-12908229D02*
X14327087Y-12889182D01*
X14327087Y-12889182D02*
X14308040Y-12879658D01*
X14308040Y-12879658D02*
X14269944Y-12879658D01*
X14269944Y-12879658D02*
X14250897Y-12889182D01*
X14336611Y-13003467D02*
X14317563Y-13012991D01*
X14317563Y-13012991D02*
X14269944Y-13012991D01*
X14269944Y-13012991D02*
X14250897Y-13003467D01*
X14250897Y-13003467D02*
X14241373Y-12984420D01*
X14241373Y-12984420D02*
X14241373Y-12965372D01*
X14241373Y-12965372D02*
X14250897Y-12946325D01*
X14250897Y-12946325D02*
X14269944Y-12936801D01*
X14269944Y-12936801D02*
X14317563Y-12936801D01*
X14317563Y-12936801D02*
X14336611Y-12927277D01*
X14431849Y-12879658D02*
X14431849Y-13079658D01*
X14431849Y-12889182D02*
X14450897Y-12879658D01*
X14450897Y-12879658D02*
X14488992Y-12879658D01*
X14488992Y-12879658D02*
X14508040Y-12889182D01*
X14508040Y-12889182D02*
X14517563Y-12898705D01*
X14517563Y-12898705D02*
X14527087Y-12917753D01*
X14527087Y-12917753D02*
X14527087Y-12974896D01*
X14527087Y-12974896D02*
X14517563Y-12993944D01*
X14517563Y-12993944D02*
X14508040Y-13003467D01*
X14508040Y-13003467D02*
X14488992Y-13012991D01*
X14488992Y-13012991D02*
X14450897Y-13012991D01*
X14450897Y-13012991D02*
X14431849Y-13003467D01*
X14612801Y-12993944D02*
X14622325Y-13003467D01*
X14622325Y-13003467D02*
X14612801Y-13012991D01*
X14612801Y-13012991D02*
X14603278Y-13003467D01*
X14603278Y-13003467D02*
X14612801Y-12993944D01*
X14612801Y-12993944D02*
X14612801Y-13012991D01*
X14612801Y-12889182D02*
X14622325Y-12898705D01*
X14622325Y-12898705D02*
X14612801Y-12908229D01*
X14612801Y-12908229D02*
X14603278Y-12898705D01*
X14603278Y-12898705D02*
X14612801Y-12889182D01*
X14612801Y-12889182D02*
X14612801Y-12908229D01*
D12*
X12800596Y-13251507D02*
X12980596Y-13431507D01*
X12980596Y-13251507D02*
X12800596Y-13431507D01*
D11*
X13346135Y-13432991D02*
X13231849Y-13432991D01*
X13288992Y-13432991D02*
X13288992Y-13232991D01*
X13288992Y-13232991D02*
X13269944Y-13261563D01*
X13269944Y-13261563D02*
X13250897Y-13280610D01*
X13250897Y-13280610D02*
X13231849Y-13290134D01*
X13431849Y-13413944D02*
X13441373Y-13423467D01*
X13441373Y-13423467D02*
X13431849Y-13432991D01*
X13431849Y-13432991D02*
X13422325Y-13423467D01*
X13422325Y-13423467D02*
X13431849Y-13413944D01*
X13431849Y-13413944D02*
X13431849Y-13432991D01*
X13555659Y-13318705D02*
X13536611Y-13309182D01*
X13536611Y-13309182D02*
X13527087Y-13299658D01*
X13527087Y-13299658D02*
X13517563Y-13280610D01*
X13517563Y-13280610D02*
X13517563Y-13271086D01*
X13517563Y-13271086D02*
X13527087Y-13252039D01*
X13527087Y-13252039D02*
X13536611Y-13242515D01*
X13536611Y-13242515D02*
X13555659Y-13232991D01*
X13555659Y-13232991D02*
X13593754Y-13232991D01*
X13593754Y-13232991D02*
X13612801Y-13242515D01*
X13612801Y-13242515D02*
X13622325Y-13252039D01*
X13622325Y-13252039D02*
X13631849Y-13271086D01*
X13631849Y-13271086D02*
X13631849Y-13280610D01*
X13631849Y-13280610D02*
X13622325Y-13299658D01*
X13622325Y-13299658D02*
X13612801Y-13309182D01*
X13612801Y-13309182D02*
X13593754Y-13318705D01*
X13593754Y-13318705D02*
X13555659Y-13318705D01*
X13555659Y-13318705D02*
X13536611Y-13328229D01*
X13536611Y-13328229D02*
X13527087Y-13337753D01*
X13527087Y-13337753D02*
X13517563Y-13356801D01*
X13517563Y-13356801D02*
X13517563Y-13394896D01*
X13517563Y-13394896D02*
X13527087Y-13413944D01*
X13527087Y-13413944D02*
X13536611Y-13423467D01*
X13536611Y-13423467D02*
X13555659Y-13432991D01*
X13555659Y-13432991D02*
X13593754Y-13432991D01*
X13593754Y-13432991D02*
X13612801Y-13423467D01*
X13612801Y-13423467D02*
X13622325Y-13413944D01*
X13622325Y-13413944D02*
X13631849Y-13394896D01*
X13631849Y-13394896D02*
X13631849Y-13356801D01*
X13631849Y-13356801D02*
X13622325Y-13337753D01*
X13622325Y-13337753D02*
X13612801Y-13328229D01*
X13612801Y-13328229D02*
X13593754Y-13318705D01*
X13755659Y-13232991D02*
X13774706Y-13232991D01*
X13774706Y-13232991D02*
X13793754Y-13242515D01*
X13793754Y-13242515D02*
X13803278Y-13252039D01*
X13803278Y-13252039D02*
X13812801Y-13271086D01*
X13812801Y-13271086D02*
X13822325Y-13309182D01*
X13822325Y-13309182D02*
X13822325Y-13356801D01*
X13822325Y-13356801D02*
X13812801Y-13394896D01*
X13812801Y-13394896D02*
X13803278Y-13413944D01*
X13803278Y-13413944D02*
X13793754Y-13423467D01*
X13793754Y-13423467D02*
X13774706Y-13432991D01*
X13774706Y-13432991D02*
X13755659Y-13432991D01*
X13755659Y-13432991D02*
X13736611Y-13423467D01*
X13736611Y-13423467D02*
X13727087Y-13413944D01*
X13727087Y-13413944D02*
X13717563Y-13394896D01*
X13717563Y-13394896D02*
X13708040Y-13356801D01*
X13708040Y-13356801D02*
X13708040Y-13309182D01*
X13708040Y-13309182D02*
X13717563Y-13271086D01*
X13717563Y-13271086D02*
X13727087Y-13252039D01*
X13727087Y-13252039D02*
X13736611Y-13242515D01*
X13736611Y-13242515D02*
X13755659Y-13232991D01*
X13946135Y-13232991D02*
X13965182Y-13232991D01*
X13965182Y-13232991D02*
X13984230Y-13242515D01*
X13984230Y-13242515D02*
X13993754Y-13252039D01*
X13993754Y-13252039D02*
X14003278Y-13271086D01*
X14003278Y-13271086D02*
X14012801Y-13309182D01*
X14012801Y-13309182D02*
X14012801Y-13356801D01*
X14012801Y-13356801D02*
X14003278Y-13394896D01*
X14003278Y-13394896D02*
X13993754Y-13413944D01*
X13993754Y-13413944D02*
X13984230Y-13423467D01*
X13984230Y-13423467D02*
X13965182Y-13432991D01*
X13965182Y-13432991D02*
X13946135Y-13432991D01*
X13946135Y-13432991D02*
X13927087Y-13423467D01*
X13927087Y-13423467D02*
X13917563Y-13413944D01*
X13917563Y-13413944D02*
X13908040Y-13394896D01*
X13908040Y-13394896D02*
X13898516Y-13356801D01*
X13898516Y-13356801D02*
X13898516Y-13309182D01*
X13898516Y-13309182D02*
X13908040Y-13271086D01*
X13908040Y-13271086D02*
X13917563Y-13252039D01*
X13917563Y-13252039D02*
X13927087Y-13242515D01*
X13927087Y-13242515D02*
X13946135Y-13232991D01*
X14098516Y-13432991D02*
X14098516Y-13299658D01*
X14098516Y-13318705D02*
X14108040Y-13309182D01*
X14108040Y-13309182D02*
X14127087Y-13299658D01*
X14127087Y-13299658D02*
X14155659Y-13299658D01*
X14155659Y-13299658D02*
X14174706Y-13309182D01*
X14174706Y-13309182D02*
X14184230Y-13328229D01*
X14184230Y-13328229D02*
X14184230Y-13432991D01*
X14184230Y-13328229D02*
X14193754Y-13309182D01*
X14193754Y-13309182D02*
X14212801Y-13299658D01*
X14212801Y-13299658D02*
X14241373Y-13299658D01*
X14241373Y-13299658D02*
X14260421Y-13309182D01*
X14260421Y-13309182D02*
X14269944Y-13328229D01*
X14269944Y-13328229D02*
X14269944Y-13432991D01*
X14365182Y-13432991D02*
X14365182Y-13299658D01*
X14365182Y-13318705D02*
X14374706Y-13309182D01*
X14374706Y-13309182D02*
X14393754Y-13299658D01*
X14393754Y-13299658D02*
X14422325Y-13299658D01*
X14422325Y-13299658D02*
X14441373Y-13309182D01*
X14441373Y-13309182D02*
X14450897Y-13328229D01*
X14450897Y-13328229D02*
X14450897Y-13432991D01*
X14450897Y-13328229D02*
X14460421Y-13309182D01*
X14460421Y-13309182D02*
X14479468Y-13299658D01*
X14479468Y-13299658D02*
X14508040Y-13299658D01*
X14508040Y-13299658D02*
X14527087Y-13309182D01*
X14527087Y-13309182D02*
X14536611Y-13328229D01*
X14536611Y-13328229D02*
X14536611Y-13432991D01*
X14927087Y-13223467D02*
X14755659Y-13480610D01*
X15184230Y-13232991D02*
X15203278Y-13232991D01*
X15203278Y-13232991D02*
X15222325Y-13242515D01*
X15222325Y-13242515D02*
X15231849Y-13252039D01*
X15231849Y-13252039D02*
X15241373Y-13271086D01*
X15241373Y-13271086D02*
X15250897Y-13309182D01*
X15250897Y-13309182D02*
X15250897Y-13356801D01*
X15250897Y-13356801D02*
X15241373Y-13394896D01*
X15241373Y-13394896D02*
X15231849Y-13413944D01*
X15231849Y-13413944D02*
X15222325Y-13423467D01*
X15222325Y-13423467D02*
X15203278Y-13432991D01*
X15203278Y-13432991D02*
X15184230Y-13432991D01*
X15184230Y-13432991D02*
X15165183Y-13423467D01*
X15165183Y-13423467D02*
X15155659Y-13413944D01*
X15155659Y-13413944D02*
X15146135Y-13394896D01*
X15146135Y-13394896D02*
X15136611Y-13356801D01*
X15136611Y-13356801D02*
X15136611Y-13309182D01*
X15136611Y-13309182D02*
X15146135Y-13271086D01*
X15146135Y-13271086D02*
X15155659Y-13252039D01*
X15155659Y-13252039D02*
X15165183Y-13242515D01*
X15165183Y-13242515D02*
X15184230Y-13232991D01*
X15336611Y-13413944D02*
X15346135Y-13423467D01*
X15346135Y-13423467D02*
X15336611Y-13432991D01*
X15336611Y-13432991D02*
X15327087Y-13423467D01*
X15327087Y-13423467D02*
X15336611Y-13413944D01*
X15336611Y-13413944D02*
X15336611Y-13432991D01*
X15469944Y-13232991D02*
X15488992Y-13232991D01*
X15488992Y-13232991D02*
X15508040Y-13242515D01*
X15508040Y-13242515D02*
X15517564Y-13252039D01*
X15517564Y-13252039D02*
X15527087Y-13271086D01*
X15527087Y-13271086D02*
X15536611Y-13309182D01*
X15536611Y-13309182D02*
X15536611Y-13356801D01*
X15536611Y-13356801D02*
X15527087Y-13394896D01*
X15527087Y-13394896D02*
X15517564Y-13413944D01*
X15517564Y-13413944D02*
X15508040Y-13423467D01*
X15508040Y-13423467D02*
X15488992Y-13432991D01*
X15488992Y-13432991D02*
X15469944Y-13432991D01*
X15469944Y-13432991D02*
X15450897Y-13423467D01*
X15450897Y-13423467D02*
X15441373Y-13413944D01*
X15441373Y-13413944D02*
X15431849Y-13394896D01*
X15431849Y-13394896D02*
X15422325Y-13356801D01*
X15422325Y-13356801D02*
X15422325Y-13309182D01*
X15422325Y-13309182D02*
X15431849Y-13271086D01*
X15431849Y-13271086D02*
X15441373Y-13252039D01*
X15441373Y-13252039D02*
X15450897Y-13242515D01*
X15450897Y-13242515D02*
X15469944Y-13232991D01*
X15603278Y-13232991D02*
X15736611Y-13232991D01*
X15736611Y-13232991D02*
X15650897Y-13432991D01*
X15850897Y-13232991D02*
X15869945Y-13232991D01*
X15869945Y-13232991D02*
X15888992Y-13242515D01*
X15888992Y-13242515D02*
X15898516Y-13252039D01*
X15898516Y-13252039D02*
X15908040Y-13271086D01*
X15908040Y-13271086D02*
X15917564Y-13309182D01*
X15917564Y-13309182D02*
X15917564Y-13356801D01*
X15917564Y-13356801D02*
X15908040Y-13394896D01*
X15908040Y-13394896D02*
X15898516Y-13413944D01*
X15898516Y-13413944D02*
X15888992Y-13423467D01*
X15888992Y-13423467D02*
X15869945Y-13432991D01*
X15869945Y-13432991D02*
X15850897Y-13432991D01*
X15850897Y-13432991D02*
X15831849Y-13423467D01*
X15831849Y-13423467D02*
X15822325Y-13413944D01*
X15822325Y-13413944D02*
X15812802Y-13394896D01*
X15812802Y-13394896D02*
X15803278Y-13356801D01*
X15803278Y-13356801D02*
X15803278Y-13309182D01*
X15803278Y-13309182D02*
X15812802Y-13271086D01*
X15812802Y-13271086D02*
X15822325Y-13252039D01*
X15822325Y-13252039D02*
X15831849Y-13242515D01*
X15831849Y-13242515D02*
X15850897Y-13232991D01*
X16012802Y-13432991D02*
X16050897Y-13432991D01*
X16050897Y-13432991D02*
X16069945Y-13423467D01*
X16069945Y-13423467D02*
X16079468Y-13413944D01*
X16079468Y-13413944D02*
X16098516Y-13385372D01*
X16098516Y-13385372D02*
X16108040Y-13347277D01*
X16108040Y-13347277D02*
X16108040Y-13271086D01*
X16108040Y-13271086D02*
X16098516Y-13252039D01*
X16098516Y-13252039D02*
X16088992Y-13242515D01*
X16088992Y-13242515D02*
X16069945Y-13232991D01*
X16069945Y-13232991D02*
X16031849Y-13232991D01*
X16031849Y-13232991D02*
X16012802Y-13242515D01*
X16012802Y-13242515D02*
X16003278Y-13252039D01*
X16003278Y-13252039D02*
X15993754Y-13271086D01*
X15993754Y-13271086D02*
X15993754Y-13318705D01*
X15993754Y-13318705D02*
X16003278Y-13337753D01*
X16003278Y-13337753D02*
X16012802Y-13347277D01*
X16012802Y-13347277D02*
X16031849Y-13356801D01*
X16031849Y-13356801D02*
X16069945Y-13356801D01*
X16069945Y-13356801D02*
X16088992Y-13347277D01*
X16088992Y-13347277D02*
X16098516Y-13337753D01*
X16098516Y-13337753D02*
X16108040Y-13318705D01*
X16184230Y-13232991D02*
X16184230Y-13271086D01*
X16260421Y-13232991D02*
X16260421Y-13271086D01*
X16555659Y-13509182D02*
X16546135Y-13499658D01*
X16546135Y-13499658D02*
X16527087Y-13471086D01*
X16527087Y-13471086D02*
X16517564Y-13452039D01*
X16517564Y-13452039D02*
X16508040Y-13423467D01*
X16508040Y-13423467D02*
X16498516Y-13375848D01*
X16498516Y-13375848D02*
X16498516Y-13337753D01*
X16498516Y-13337753D02*
X16508040Y-13290134D01*
X16508040Y-13290134D02*
X16517564Y-13261563D01*
X16517564Y-13261563D02*
X16527087Y-13242515D01*
X16527087Y-13242515D02*
X16546135Y-13213944D01*
X16546135Y-13213944D02*
X16555659Y-13204420D01*
X16736611Y-13432991D02*
X16622326Y-13432991D01*
X16679468Y-13432991D02*
X16679468Y-13232991D01*
X16679468Y-13232991D02*
X16660421Y-13261563D01*
X16660421Y-13261563D02*
X16641373Y-13280610D01*
X16641373Y-13280610D02*
X16622326Y-13290134D01*
X16965183Y-13423467D02*
X16984230Y-13432991D01*
X16984230Y-13432991D02*
X17022326Y-13432991D01*
X17022326Y-13432991D02*
X17041373Y-13423467D01*
X17041373Y-13423467D02*
X17050897Y-13404420D01*
X17050897Y-13404420D02*
X17050897Y-13394896D01*
X17050897Y-13394896D02*
X17041373Y-13375848D01*
X17041373Y-13375848D02*
X17022326Y-13366325D01*
X17022326Y-13366325D02*
X16993754Y-13366325D01*
X16993754Y-13366325D02*
X16974707Y-13356801D01*
X16974707Y-13356801D02*
X16965183Y-13337753D01*
X16965183Y-13337753D02*
X16965183Y-13328229D01*
X16965183Y-13328229D02*
X16974707Y-13309182D01*
X16974707Y-13309182D02*
X16993754Y-13299658D01*
X16993754Y-13299658D02*
X17022326Y-13299658D01*
X17022326Y-13299658D02*
X17041373Y-13309182D01*
X17165183Y-13432991D02*
X17146135Y-13423467D01*
X17146135Y-13423467D02*
X17136611Y-13404420D01*
X17136611Y-13404420D02*
X17136611Y-13232991D01*
X17269945Y-13432991D02*
X17250897Y-13423467D01*
X17250897Y-13423467D02*
X17241373Y-13413944D01*
X17241373Y-13413944D02*
X17231850Y-13394896D01*
X17231850Y-13394896D02*
X17231850Y-13337753D01*
X17231850Y-13337753D02*
X17241373Y-13318705D01*
X17241373Y-13318705D02*
X17250897Y-13309182D01*
X17250897Y-13309182D02*
X17269945Y-13299658D01*
X17269945Y-13299658D02*
X17298516Y-13299658D01*
X17298516Y-13299658D02*
X17317564Y-13309182D01*
X17317564Y-13309182D02*
X17327088Y-13318705D01*
X17327088Y-13318705D02*
X17336611Y-13337753D01*
X17336611Y-13337753D02*
X17336611Y-13394896D01*
X17336611Y-13394896D02*
X17327088Y-13413944D01*
X17327088Y-13413944D02*
X17317564Y-13423467D01*
X17317564Y-13423467D02*
X17298516Y-13432991D01*
X17298516Y-13432991D02*
X17269945Y-13432991D01*
X17393754Y-13299658D02*
X17469945Y-13299658D01*
X17422326Y-13232991D02*
X17422326Y-13404420D01*
X17422326Y-13404420D02*
X17431850Y-13423467D01*
X17431850Y-13423467D02*
X17450897Y-13432991D01*
X17450897Y-13432991D02*
X17469945Y-13432991D01*
X17517564Y-13509182D02*
X17527088Y-13499658D01*
X17527088Y-13499658D02*
X17546135Y-13471086D01*
X17546135Y-13471086D02*
X17555659Y-13452039D01*
X17555659Y-13452039D02*
X17565183Y-13423467D01*
X17565183Y-13423467D02*
X17574707Y-13375848D01*
X17574707Y-13375848D02*
X17574707Y-13337753D01*
X17574707Y-13337753D02*
X17565183Y-13290134D01*
X17565183Y-13290134D02*
X17555659Y-13261563D01*
X17555659Y-13261563D02*
X17546135Y-13242515D01*
X17546135Y-13242515D02*
X17527088Y-13213944D01*
X17527088Y-13213944D02*
X17517564Y-13204420D01*
X17879469Y-13509182D02*
X17869945Y-13499658D01*
X17869945Y-13499658D02*
X17850897Y-13471086D01*
X17850897Y-13471086D02*
X17841373Y-13452039D01*
X17841373Y-13452039D02*
X17831850Y-13423467D01*
X17831850Y-13423467D02*
X17822326Y-13375848D01*
X17822326Y-13375848D02*
X17822326Y-13337753D01*
X17822326Y-13337753D02*
X17831850Y-13290134D01*
X17831850Y-13290134D02*
X17841373Y-13261563D01*
X17841373Y-13261563D02*
X17850897Y-13242515D01*
X17850897Y-13242515D02*
X17869945Y-13213944D01*
X17869945Y-13213944D02*
X17879469Y-13204420D01*
X17955659Y-13299658D02*
X17955659Y-13432991D01*
X17955659Y-13318705D02*
X17965183Y-13309182D01*
X17965183Y-13309182D02*
X17984230Y-13299658D01*
X17984230Y-13299658D02*
X18012802Y-13299658D01*
X18012802Y-13299658D02*
X18031850Y-13309182D01*
X18031850Y-13309182D02*
X18041373Y-13328229D01*
X18041373Y-13328229D02*
X18041373Y-13432991D01*
X18165183Y-13432991D02*
X18146135Y-13423467D01*
X18146135Y-13423467D02*
X18136611Y-13413944D01*
X18136611Y-13413944D02*
X18127088Y-13394896D01*
X18127088Y-13394896D02*
X18127088Y-13337753D01*
X18127088Y-13337753D02*
X18136611Y-13318705D01*
X18136611Y-13318705D02*
X18146135Y-13309182D01*
X18146135Y-13309182D02*
X18165183Y-13299658D01*
X18165183Y-13299658D02*
X18193754Y-13299658D01*
X18193754Y-13299658D02*
X18212802Y-13309182D01*
X18212802Y-13309182D02*
X18222326Y-13318705D01*
X18222326Y-13318705D02*
X18231850Y-13337753D01*
X18231850Y-13337753D02*
X18231850Y-13394896D01*
X18231850Y-13394896D02*
X18222326Y-13413944D01*
X18222326Y-13413944D02*
X18212802Y-13423467D01*
X18212802Y-13423467D02*
X18193754Y-13432991D01*
X18193754Y-13432991D02*
X18165183Y-13432991D01*
X18288992Y-13299658D02*
X18365183Y-13299658D01*
X18317564Y-13232991D02*
X18317564Y-13404420D01*
X18317564Y-13404420D02*
X18327088Y-13423467D01*
X18327088Y-13423467D02*
X18346135Y-13432991D01*
X18346135Y-13432991D02*
X18365183Y-13432991D01*
X18584231Y-13299658D02*
X18584231Y-13499658D01*
X18584231Y-13309182D02*
X18603278Y-13299658D01*
X18603278Y-13299658D02*
X18641373Y-13299658D01*
X18641373Y-13299658D02*
X18660421Y-13309182D01*
X18660421Y-13309182D02*
X18669945Y-13318705D01*
X18669945Y-13318705D02*
X18679469Y-13337753D01*
X18679469Y-13337753D02*
X18679469Y-13394896D01*
X18679469Y-13394896D02*
X18669945Y-13413944D01*
X18669945Y-13413944D02*
X18660421Y-13423467D01*
X18660421Y-13423467D02*
X18641373Y-13432991D01*
X18641373Y-13432991D02*
X18603278Y-13432991D01*
X18603278Y-13432991D02*
X18584231Y-13423467D01*
X18793754Y-13432991D02*
X18774707Y-13423467D01*
X18774707Y-13423467D02*
X18765183Y-13404420D01*
X18765183Y-13404420D02*
X18765183Y-13232991D01*
X18955659Y-13432991D02*
X18955659Y-13328229D01*
X18955659Y-13328229D02*
X18946135Y-13309182D01*
X18946135Y-13309182D02*
X18927088Y-13299658D01*
X18927088Y-13299658D02*
X18888992Y-13299658D01*
X18888992Y-13299658D02*
X18869945Y-13309182D01*
X18955659Y-13423467D02*
X18936612Y-13432991D01*
X18936612Y-13432991D02*
X18888992Y-13432991D01*
X18888992Y-13432991D02*
X18869945Y-13423467D01*
X18869945Y-13423467D02*
X18860421Y-13404420D01*
X18860421Y-13404420D02*
X18860421Y-13385372D01*
X18860421Y-13385372D02*
X18869945Y-13366325D01*
X18869945Y-13366325D02*
X18888992Y-13356801D01*
X18888992Y-13356801D02*
X18936612Y-13356801D01*
X18936612Y-13356801D02*
X18955659Y-13347277D01*
X19022326Y-13299658D02*
X19098516Y-13299658D01*
X19050897Y-13232991D02*
X19050897Y-13404420D01*
X19050897Y-13404420D02*
X19060421Y-13423467D01*
X19060421Y-13423467D02*
X19079469Y-13432991D01*
X19079469Y-13432991D02*
X19098516Y-13432991D01*
X19241373Y-13423467D02*
X19222326Y-13432991D01*
X19222326Y-13432991D02*
X19184231Y-13432991D01*
X19184231Y-13432991D02*
X19165183Y-13423467D01*
X19165183Y-13423467D02*
X19155659Y-13404420D01*
X19155659Y-13404420D02*
X19155659Y-13328229D01*
X19155659Y-13328229D02*
X19165183Y-13309182D01*
X19165183Y-13309182D02*
X19184231Y-13299658D01*
X19184231Y-13299658D02*
X19222326Y-13299658D01*
X19222326Y-13299658D02*
X19241373Y-13309182D01*
X19241373Y-13309182D02*
X19250897Y-13328229D01*
X19250897Y-13328229D02*
X19250897Y-13347277D01*
X19250897Y-13347277D02*
X19155659Y-13366325D01*
X19422326Y-13432991D02*
X19422326Y-13232991D01*
X19422326Y-13423467D02*
X19403278Y-13432991D01*
X19403278Y-13432991D02*
X19365183Y-13432991D01*
X19365183Y-13432991D02*
X19346135Y-13423467D01*
X19346135Y-13423467D02*
X19336612Y-13413944D01*
X19336612Y-13413944D02*
X19327088Y-13394896D01*
X19327088Y-13394896D02*
X19327088Y-13337753D01*
X19327088Y-13337753D02*
X19336612Y-13318705D01*
X19336612Y-13318705D02*
X19346135Y-13309182D01*
X19346135Y-13309182D02*
X19365183Y-13299658D01*
X19365183Y-13299658D02*
X19403278Y-13299658D01*
X19403278Y-13299658D02*
X19422326Y-13309182D01*
X19498516Y-13509182D02*
X19508040Y-13499658D01*
X19508040Y-13499658D02*
X19527088Y-13471086D01*
X19527088Y-13471086D02*
X19536612Y-13452039D01*
X19536612Y-13452039D02*
X19546135Y-13423467D01*
X19546135Y-13423467D02*
X19555659Y-13375848D01*
X19555659Y-13375848D02*
X19555659Y-13337753D01*
X19555659Y-13337753D02*
X19546135Y-13290134D01*
X19546135Y-13290134D02*
X19536612Y-13261563D01*
X19536612Y-13261563D02*
X19527088Y-13242515D01*
X19527088Y-13242515D02*
X19508040Y-13213944D01*
X19508040Y-13213944D02*
X19498516Y-13204420D01*
X12980596Y-13641507D02*
G75*
G03*
X12980596Y-13641507I-100000J0D01*
G01*
X13222325Y-13532991D02*
X13346135Y-13532991D01*
X13346135Y-13532991D02*
X13279468Y-13609182D01*
X13279468Y-13609182D02*
X13308040Y-13609182D01*
X13308040Y-13609182D02*
X13327087Y-13618705D01*
X13327087Y-13618705D02*
X13336611Y-13628229D01*
X13336611Y-13628229D02*
X13346135Y-13647277D01*
X13346135Y-13647277D02*
X13346135Y-13694896D01*
X13346135Y-13694896D02*
X13336611Y-13713944D01*
X13336611Y-13713944D02*
X13327087Y-13723467D01*
X13327087Y-13723467D02*
X13308040Y-13732991D01*
X13308040Y-13732991D02*
X13250897Y-13732991D01*
X13250897Y-13732991D02*
X13231849Y-13723467D01*
X13231849Y-13723467D02*
X13222325Y-13713944D01*
X13431849Y-13713944D02*
X13441373Y-13723467D01*
X13441373Y-13723467D02*
X13431849Y-13732991D01*
X13431849Y-13732991D02*
X13422325Y-13723467D01*
X13422325Y-13723467D02*
X13431849Y-13713944D01*
X13431849Y-13713944D02*
X13431849Y-13732991D01*
X13565182Y-13532991D02*
X13584230Y-13532991D01*
X13584230Y-13532991D02*
X13603278Y-13542515D01*
X13603278Y-13542515D02*
X13612801Y-13552039D01*
X13612801Y-13552039D02*
X13622325Y-13571086D01*
X13622325Y-13571086D02*
X13631849Y-13609182D01*
X13631849Y-13609182D02*
X13631849Y-13656801D01*
X13631849Y-13656801D02*
X13622325Y-13694896D01*
X13622325Y-13694896D02*
X13612801Y-13713944D01*
X13612801Y-13713944D02*
X13603278Y-13723467D01*
X13603278Y-13723467D02*
X13584230Y-13732991D01*
X13584230Y-13732991D02*
X13565182Y-13732991D01*
X13565182Y-13732991D02*
X13546135Y-13723467D01*
X13546135Y-13723467D02*
X13536611Y-13713944D01*
X13536611Y-13713944D02*
X13527087Y-13694896D01*
X13527087Y-13694896D02*
X13517563Y-13656801D01*
X13517563Y-13656801D02*
X13517563Y-13609182D01*
X13517563Y-13609182D02*
X13527087Y-13571086D01*
X13527087Y-13571086D02*
X13536611Y-13552039D01*
X13536611Y-13552039D02*
X13546135Y-13542515D01*
X13546135Y-13542515D02*
X13565182Y-13532991D01*
X13755659Y-13532991D02*
X13774706Y-13532991D01*
X13774706Y-13532991D02*
X13793754Y-13542515D01*
X13793754Y-13542515D02*
X13803278Y-13552039D01*
X13803278Y-13552039D02*
X13812801Y-13571086D01*
X13812801Y-13571086D02*
X13822325Y-13609182D01*
X13822325Y-13609182D02*
X13822325Y-13656801D01*
X13822325Y-13656801D02*
X13812801Y-13694896D01*
X13812801Y-13694896D02*
X13803278Y-13713944D01*
X13803278Y-13713944D02*
X13793754Y-13723467D01*
X13793754Y-13723467D02*
X13774706Y-13732991D01*
X13774706Y-13732991D02*
X13755659Y-13732991D01*
X13755659Y-13732991D02*
X13736611Y-13723467D01*
X13736611Y-13723467D02*
X13727087Y-13713944D01*
X13727087Y-13713944D02*
X13717563Y-13694896D01*
X13717563Y-13694896D02*
X13708040Y-13656801D01*
X13708040Y-13656801D02*
X13708040Y-13609182D01*
X13708040Y-13609182D02*
X13717563Y-13571086D01*
X13717563Y-13571086D02*
X13727087Y-13552039D01*
X13727087Y-13552039D02*
X13736611Y-13542515D01*
X13736611Y-13542515D02*
X13755659Y-13532991D01*
X13946135Y-13532991D02*
X13965182Y-13532991D01*
X13965182Y-13532991D02*
X13984230Y-13542515D01*
X13984230Y-13542515D02*
X13993754Y-13552039D01*
X13993754Y-13552039D02*
X14003278Y-13571086D01*
X14003278Y-13571086D02*
X14012801Y-13609182D01*
X14012801Y-13609182D02*
X14012801Y-13656801D01*
X14012801Y-13656801D02*
X14003278Y-13694896D01*
X14003278Y-13694896D02*
X13993754Y-13713944D01*
X13993754Y-13713944D02*
X13984230Y-13723467D01*
X13984230Y-13723467D02*
X13965182Y-13732991D01*
X13965182Y-13732991D02*
X13946135Y-13732991D01*
X13946135Y-13732991D02*
X13927087Y-13723467D01*
X13927087Y-13723467D02*
X13917563Y-13713944D01*
X13917563Y-13713944D02*
X13908040Y-13694896D01*
X13908040Y-13694896D02*
X13898516Y-13656801D01*
X13898516Y-13656801D02*
X13898516Y-13609182D01*
X13898516Y-13609182D02*
X13908040Y-13571086D01*
X13908040Y-13571086D02*
X13917563Y-13552039D01*
X13917563Y-13552039D02*
X13927087Y-13542515D01*
X13927087Y-13542515D02*
X13946135Y-13532991D01*
X14098516Y-13732991D02*
X14098516Y-13599658D01*
X14098516Y-13618705D02*
X14108040Y-13609182D01*
X14108040Y-13609182D02*
X14127087Y-13599658D01*
X14127087Y-13599658D02*
X14155659Y-13599658D01*
X14155659Y-13599658D02*
X14174706Y-13609182D01*
X14174706Y-13609182D02*
X14184230Y-13628229D01*
X14184230Y-13628229D02*
X14184230Y-13732991D01*
X14184230Y-13628229D02*
X14193754Y-13609182D01*
X14193754Y-13609182D02*
X14212801Y-13599658D01*
X14212801Y-13599658D02*
X14241373Y-13599658D01*
X14241373Y-13599658D02*
X14260421Y-13609182D01*
X14260421Y-13609182D02*
X14269944Y-13628229D01*
X14269944Y-13628229D02*
X14269944Y-13732991D01*
X14365182Y-13732991D02*
X14365182Y-13599658D01*
X14365182Y-13618705D02*
X14374706Y-13609182D01*
X14374706Y-13609182D02*
X14393754Y-13599658D01*
X14393754Y-13599658D02*
X14422325Y-13599658D01*
X14422325Y-13599658D02*
X14441373Y-13609182D01*
X14441373Y-13609182D02*
X14450897Y-13628229D01*
X14450897Y-13628229D02*
X14450897Y-13732991D01*
X14450897Y-13628229D02*
X14460421Y-13609182D01*
X14460421Y-13609182D02*
X14479468Y-13599658D01*
X14479468Y-13599658D02*
X14508040Y-13599658D01*
X14508040Y-13599658D02*
X14527087Y-13609182D01*
X14527087Y-13609182D02*
X14536611Y-13628229D01*
X14536611Y-13628229D02*
X14536611Y-13732991D01*
X14927087Y-13523467D02*
X14755659Y-13780610D01*
X15184230Y-13532991D02*
X15203278Y-13532991D01*
X15203278Y-13532991D02*
X15222325Y-13542515D01*
X15222325Y-13542515D02*
X15231849Y-13552039D01*
X15231849Y-13552039D02*
X15241373Y-13571086D01*
X15241373Y-13571086D02*
X15250897Y-13609182D01*
X15250897Y-13609182D02*
X15250897Y-13656801D01*
X15250897Y-13656801D02*
X15241373Y-13694896D01*
X15241373Y-13694896D02*
X15231849Y-13713944D01*
X15231849Y-13713944D02*
X15222325Y-13723467D01*
X15222325Y-13723467D02*
X15203278Y-13732991D01*
X15203278Y-13732991D02*
X15184230Y-13732991D01*
X15184230Y-13732991D02*
X15165183Y-13723467D01*
X15165183Y-13723467D02*
X15155659Y-13713944D01*
X15155659Y-13713944D02*
X15146135Y-13694896D01*
X15146135Y-13694896D02*
X15136611Y-13656801D01*
X15136611Y-13656801D02*
X15136611Y-13609182D01*
X15136611Y-13609182D02*
X15146135Y-13571086D01*
X15146135Y-13571086D02*
X15155659Y-13552039D01*
X15155659Y-13552039D02*
X15165183Y-13542515D01*
X15165183Y-13542515D02*
X15184230Y-13532991D01*
X15336611Y-13713944D02*
X15346135Y-13723467D01*
X15346135Y-13723467D02*
X15336611Y-13732991D01*
X15336611Y-13732991D02*
X15327087Y-13723467D01*
X15327087Y-13723467D02*
X15336611Y-13713944D01*
X15336611Y-13713944D02*
X15336611Y-13732991D01*
X15536611Y-13732991D02*
X15422325Y-13732991D01*
X15479468Y-13732991D02*
X15479468Y-13532991D01*
X15479468Y-13532991D02*
X15460421Y-13561563D01*
X15460421Y-13561563D02*
X15441373Y-13580610D01*
X15441373Y-13580610D02*
X15422325Y-13590134D01*
X15727087Y-13732991D02*
X15612802Y-13732991D01*
X15669944Y-13732991D02*
X15669944Y-13532991D01*
X15669944Y-13532991D02*
X15650897Y-13561563D01*
X15650897Y-13561563D02*
X15631849Y-13580610D01*
X15631849Y-13580610D02*
X15612802Y-13590134D01*
X15841373Y-13618705D02*
X15822325Y-13609182D01*
X15822325Y-13609182D02*
X15812802Y-13599658D01*
X15812802Y-13599658D02*
X15803278Y-13580610D01*
X15803278Y-13580610D02*
X15803278Y-13571086D01*
X15803278Y-13571086D02*
X15812802Y-13552039D01*
X15812802Y-13552039D02*
X15822325Y-13542515D01*
X15822325Y-13542515D02*
X15841373Y-13532991D01*
X15841373Y-13532991D02*
X15879468Y-13532991D01*
X15879468Y-13532991D02*
X15898516Y-13542515D01*
X15898516Y-13542515D02*
X15908040Y-13552039D01*
X15908040Y-13552039D02*
X15917564Y-13571086D01*
X15917564Y-13571086D02*
X15917564Y-13580610D01*
X15917564Y-13580610D02*
X15908040Y-13599658D01*
X15908040Y-13599658D02*
X15898516Y-13609182D01*
X15898516Y-13609182D02*
X15879468Y-13618705D01*
X15879468Y-13618705D02*
X15841373Y-13618705D01*
X15841373Y-13618705D02*
X15822325Y-13628229D01*
X15822325Y-13628229D02*
X15812802Y-13637753D01*
X15812802Y-13637753D02*
X15803278Y-13656801D01*
X15803278Y-13656801D02*
X15803278Y-13694896D01*
X15803278Y-13694896D02*
X15812802Y-13713944D01*
X15812802Y-13713944D02*
X15822325Y-13723467D01*
X15822325Y-13723467D02*
X15841373Y-13732991D01*
X15841373Y-13732991D02*
X15879468Y-13732991D01*
X15879468Y-13732991D02*
X15898516Y-13723467D01*
X15898516Y-13723467D02*
X15908040Y-13713944D01*
X15908040Y-13713944D02*
X15917564Y-13694896D01*
X15917564Y-13694896D02*
X15917564Y-13656801D01*
X15917564Y-13656801D02*
X15908040Y-13637753D01*
X15908040Y-13637753D02*
X15898516Y-13628229D01*
X15898516Y-13628229D02*
X15879468Y-13618705D01*
X16108040Y-13732991D02*
X15993754Y-13732991D01*
X16050897Y-13732991D02*
X16050897Y-13532991D01*
X16050897Y-13532991D02*
X16031849Y-13561563D01*
X16031849Y-13561563D02*
X16012802Y-13580610D01*
X16012802Y-13580610D02*
X15993754Y-13590134D01*
X16184230Y-13532991D02*
X16184230Y-13571086D01*
X16260421Y-13532991D02*
X16260421Y-13571086D01*
X16555659Y-13809182D02*
X16546135Y-13799658D01*
X16546135Y-13799658D02*
X16527087Y-13771086D01*
X16527087Y-13771086D02*
X16517564Y-13752039D01*
X16517564Y-13752039D02*
X16508040Y-13723467D01*
X16508040Y-13723467D02*
X16498516Y-13675848D01*
X16498516Y-13675848D02*
X16498516Y-13637753D01*
X16498516Y-13637753D02*
X16508040Y-13590134D01*
X16508040Y-13590134D02*
X16517564Y-13561563D01*
X16517564Y-13561563D02*
X16527087Y-13542515D01*
X16527087Y-13542515D02*
X16546135Y-13513944D01*
X16546135Y-13513944D02*
X16555659Y-13504420D01*
X16717564Y-13599658D02*
X16717564Y-13732991D01*
X16669945Y-13523467D02*
X16622326Y-13666325D01*
X16622326Y-13666325D02*
X16746135Y-13666325D01*
X16974707Y-13732991D02*
X16974707Y-13532991D01*
X17060421Y-13732991D02*
X17060421Y-13628229D01*
X17060421Y-13628229D02*
X17050897Y-13609182D01*
X17050897Y-13609182D02*
X17031850Y-13599658D01*
X17031850Y-13599658D02*
X17003278Y-13599658D01*
X17003278Y-13599658D02*
X16984230Y-13609182D01*
X16984230Y-13609182D02*
X16974707Y-13618705D01*
X17184230Y-13732991D02*
X17165183Y-13723467D01*
X17165183Y-13723467D02*
X17155659Y-13713944D01*
X17155659Y-13713944D02*
X17146135Y-13694896D01*
X17146135Y-13694896D02*
X17146135Y-13637753D01*
X17146135Y-13637753D02*
X17155659Y-13618705D01*
X17155659Y-13618705D02*
X17165183Y-13609182D01*
X17165183Y-13609182D02*
X17184230Y-13599658D01*
X17184230Y-13599658D02*
X17212802Y-13599658D01*
X17212802Y-13599658D02*
X17231850Y-13609182D01*
X17231850Y-13609182D02*
X17241373Y-13618705D01*
X17241373Y-13618705D02*
X17250897Y-13637753D01*
X17250897Y-13637753D02*
X17250897Y-13694896D01*
X17250897Y-13694896D02*
X17241373Y-13713944D01*
X17241373Y-13713944D02*
X17231850Y-13723467D01*
X17231850Y-13723467D02*
X17212802Y-13732991D01*
X17212802Y-13732991D02*
X17184230Y-13732991D01*
X17365183Y-13732991D02*
X17346135Y-13723467D01*
X17346135Y-13723467D02*
X17336611Y-13704420D01*
X17336611Y-13704420D02*
X17336611Y-13532991D01*
X17517564Y-13723467D02*
X17498516Y-13732991D01*
X17498516Y-13732991D02*
X17460421Y-13732991D01*
X17460421Y-13732991D02*
X17441373Y-13723467D01*
X17441373Y-13723467D02*
X17431850Y-13704420D01*
X17431850Y-13704420D02*
X17431850Y-13628229D01*
X17431850Y-13628229D02*
X17441373Y-13609182D01*
X17441373Y-13609182D02*
X17460421Y-13599658D01*
X17460421Y-13599658D02*
X17498516Y-13599658D01*
X17498516Y-13599658D02*
X17517564Y-13609182D01*
X17517564Y-13609182D02*
X17527088Y-13628229D01*
X17527088Y-13628229D02*
X17527088Y-13647277D01*
X17527088Y-13647277D02*
X17431850Y-13666325D01*
X17603278Y-13723467D02*
X17622326Y-13732991D01*
X17622326Y-13732991D02*
X17660421Y-13732991D01*
X17660421Y-13732991D02*
X17679469Y-13723467D01*
X17679469Y-13723467D02*
X17688992Y-13704420D01*
X17688992Y-13704420D02*
X17688992Y-13694896D01*
X17688992Y-13694896D02*
X17679469Y-13675848D01*
X17679469Y-13675848D02*
X17660421Y-13666325D01*
X17660421Y-13666325D02*
X17631850Y-13666325D01*
X17631850Y-13666325D02*
X17612802Y-13656801D01*
X17612802Y-13656801D02*
X17603278Y-13637753D01*
X17603278Y-13637753D02*
X17603278Y-13628229D01*
X17603278Y-13628229D02*
X17612802Y-13609182D01*
X17612802Y-13609182D02*
X17631850Y-13599658D01*
X17631850Y-13599658D02*
X17660421Y-13599658D01*
X17660421Y-13599658D02*
X17679469Y-13609182D01*
X17755659Y-13809182D02*
X17765183Y-13799658D01*
X17765183Y-13799658D02*
X17784231Y-13771086D01*
X17784231Y-13771086D02*
X17793754Y-13752039D01*
X17793754Y-13752039D02*
X17803278Y-13723467D01*
X17803278Y-13723467D02*
X17812802Y-13675848D01*
X17812802Y-13675848D02*
X17812802Y-13637753D01*
X17812802Y-13637753D02*
X17803278Y-13590134D01*
X17803278Y-13590134D02*
X17793754Y-13561563D01*
X17793754Y-13561563D02*
X17784231Y-13542515D01*
X17784231Y-13542515D02*
X17765183Y-13513944D01*
X17765183Y-13513944D02*
X17755659Y-13504420D01*
X18117564Y-13809182D02*
X18108040Y-13799658D01*
X18108040Y-13799658D02*
X18088992Y-13771086D01*
X18088992Y-13771086D02*
X18079469Y-13752039D01*
X18079469Y-13752039D02*
X18069945Y-13723467D01*
X18069945Y-13723467D02*
X18060421Y-13675848D01*
X18060421Y-13675848D02*
X18060421Y-13637753D01*
X18060421Y-13637753D02*
X18069945Y-13590134D01*
X18069945Y-13590134D02*
X18079469Y-13561563D01*
X18079469Y-13561563D02*
X18088992Y-13542515D01*
X18088992Y-13542515D02*
X18108040Y-13513944D01*
X18108040Y-13513944D02*
X18117564Y-13504420D01*
X18193754Y-13599658D02*
X18193754Y-13732991D01*
X18193754Y-13618705D02*
X18203278Y-13609182D01*
X18203278Y-13609182D02*
X18222326Y-13599658D01*
X18222326Y-13599658D02*
X18250897Y-13599658D01*
X18250897Y-13599658D02*
X18269945Y-13609182D01*
X18269945Y-13609182D02*
X18279469Y-13628229D01*
X18279469Y-13628229D02*
X18279469Y-13732991D01*
X18403278Y-13732991D02*
X18384231Y-13723467D01*
X18384231Y-13723467D02*
X18374707Y-13713944D01*
X18374707Y-13713944D02*
X18365183Y-13694896D01*
X18365183Y-13694896D02*
X18365183Y-13637753D01*
X18365183Y-13637753D02*
X18374707Y-13618705D01*
X18374707Y-13618705D02*
X18384231Y-13609182D01*
X18384231Y-13609182D02*
X18403278Y-13599658D01*
X18403278Y-13599658D02*
X18431850Y-13599658D01*
X18431850Y-13599658D02*
X18450897Y-13609182D01*
X18450897Y-13609182D02*
X18460421Y-13618705D01*
X18460421Y-13618705D02*
X18469945Y-13637753D01*
X18469945Y-13637753D02*
X18469945Y-13694896D01*
X18469945Y-13694896D02*
X18460421Y-13713944D01*
X18460421Y-13713944D02*
X18450897Y-13723467D01*
X18450897Y-13723467D02*
X18431850Y-13732991D01*
X18431850Y-13732991D02*
X18403278Y-13732991D01*
X18527088Y-13599658D02*
X18603278Y-13599658D01*
X18555659Y-13532991D02*
X18555659Y-13704420D01*
X18555659Y-13704420D02*
X18565183Y-13723467D01*
X18565183Y-13723467D02*
X18584231Y-13732991D01*
X18584231Y-13732991D02*
X18603278Y-13732991D01*
X18822326Y-13599658D02*
X18822326Y-13799658D01*
X18822326Y-13609182D02*
X18841373Y-13599658D01*
X18841373Y-13599658D02*
X18879469Y-13599658D01*
X18879469Y-13599658D02*
X18898516Y-13609182D01*
X18898516Y-13609182D02*
X18908040Y-13618705D01*
X18908040Y-13618705D02*
X18917564Y-13637753D01*
X18917564Y-13637753D02*
X18917564Y-13694896D01*
X18917564Y-13694896D02*
X18908040Y-13713944D01*
X18908040Y-13713944D02*
X18898516Y-13723467D01*
X18898516Y-13723467D02*
X18879469Y-13732991D01*
X18879469Y-13732991D02*
X18841373Y-13732991D01*
X18841373Y-13732991D02*
X18822326Y-13723467D01*
X19031850Y-13732991D02*
X19012802Y-13723467D01*
X19012802Y-13723467D02*
X19003278Y-13704420D01*
X19003278Y-13704420D02*
X19003278Y-13532991D01*
X19193754Y-13732991D02*
X19193754Y-13628229D01*
X19193754Y-13628229D02*
X19184231Y-13609182D01*
X19184231Y-13609182D02*
X19165183Y-13599658D01*
X19165183Y-13599658D02*
X19127088Y-13599658D01*
X19127088Y-13599658D02*
X19108040Y-13609182D01*
X19193754Y-13723467D02*
X19174707Y-13732991D01*
X19174707Y-13732991D02*
X19127088Y-13732991D01*
X19127088Y-13732991D02*
X19108040Y-13723467D01*
X19108040Y-13723467D02*
X19098516Y-13704420D01*
X19098516Y-13704420D02*
X19098516Y-13685372D01*
X19098516Y-13685372D02*
X19108040Y-13666325D01*
X19108040Y-13666325D02*
X19127088Y-13656801D01*
X19127088Y-13656801D02*
X19174707Y-13656801D01*
X19174707Y-13656801D02*
X19193754Y-13647277D01*
X19260421Y-13599658D02*
X19336612Y-13599658D01*
X19288993Y-13532991D02*
X19288993Y-13704420D01*
X19288993Y-13704420D02*
X19298516Y-13723467D01*
X19298516Y-13723467D02*
X19317564Y-13732991D01*
X19317564Y-13732991D02*
X19336612Y-13732991D01*
X19479469Y-13723467D02*
X19460421Y-13732991D01*
X19460421Y-13732991D02*
X19422326Y-13732991D01*
X19422326Y-13732991D02*
X19403278Y-13723467D01*
X19403278Y-13723467D02*
X19393754Y-13704420D01*
X19393754Y-13704420D02*
X19393754Y-13628229D01*
X19393754Y-13628229D02*
X19403278Y-13609182D01*
X19403278Y-13609182D02*
X19422326Y-13599658D01*
X19422326Y-13599658D02*
X19460421Y-13599658D01*
X19460421Y-13599658D02*
X19479469Y-13609182D01*
X19479469Y-13609182D02*
X19488993Y-13628229D01*
X19488993Y-13628229D02*
X19488993Y-13647277D01*
X19488993Y-13647277D02*
X19393754Y-13666325D01*
X19660421Y-13732991D02*
X19660421Y-13532991D01*
X19660421Y-13723467D02*
X19641374Y-13732991D01*
X19641374Y-13732991D02*
X19603278Y-13732991D01*
X19603278Y-13732991D02*
X19584231Y-13723467D01*
X19584231Y-13723467D02*
X19574707Y-13713944D01*
X19574707Y-13713944D02*
X19565183Y-13694896D01*
X19565183Y-13694896D02*
X19565183Y-13637753D01*
X19565183Y-13637753D02*
X19574707Y-13618705D01*
X19574707Y-13618705D02*
X19584231Y-13609182D01*
X19584231Y-13609182D02*
X19603278Y-13599658D01*
X19603278Y-13599658D02*
X19641374Y-13599658D01*
X19641374Y-13599658D02*
X19660421Y-13609182D01*
X19736612Y-13809182D02*
X19746135Y-13799658D01*
X19746135Y-13799658D02*
X19765183Y-13771086D01*
X19765183Y-13771086D02*
X19774707Y-13752039D01*
X19774707Y-13752039D02*
X19784231Y-13723467D01*
X19784231Y-13723467D02*
X19793754Y-13675848D01*
X19793754Y-13675848D02*
X19793754Y-13637753D01*
X19793754Y-13637753D02*
X19784231Y-13590134D01*
X19784231Y-13590134D02*
X19774707Y-13561563D01*
X19774707Y-13561563D02*
X19765183Y-13542515D01*
X19765183Y-13542515D02*
X19746135Y-13513944D01*
X19746135Y-13513944D02*
X19736612Y-13504420D01*
M02*
